<?xml version="1.0" encoding="utf-8"?>
<!-- Generator: Adobe Illustrator 16.0.0, SVG Export Plug-In . SVG Version: 6.00 Build 0)  -->
<!DOCTYPE svg PUBLIC "-//W3C//DTD SVG 1.1//EN" "http://www.w3.org/Graphics/SVG/1.1/DTD/svg11.dtd">
<svg version="1.1" id="Layer_1" xmlns="http://www.w3.org/2000/svg" xmlns:xlink="http://www.w3.org/1999/xlink" x="0px" y="0px"
	 width="162px" height="30.213px" viewBox="0 0 162 30.213" enable-background="new 0 0 162 30.213" xml:space="preserve">
<g>
	<path fill="none" d="M35,8.708H14.796c-0.001,0-0.012-0.171-0.012-0.129c0,0.601,0.201,1.242,0.604,1.674
		c0.108,0.116,0.25-0.545,0.377,0.455H35V8.708z"/>
	<path fill="none" d="M35,6.708h-9V6.351c0-0.049,0.432,0.357,0.327,0.357H15.753c-0.292,0-0.535,0.493-0.684,0.802
		c-0.174,0.361-0.258,0.198-0.273,1.198H35V6.708z"/>
	<path fill="none" d="M35,10.708H15.765c0.346,0,0.739,0.333,1.227,0.584c0.666,0.345,1.42,0.792,2.263,1.092
		c0.174,0.062,0.359-0.676,0.534,0.324H35V10.708z"/>
	<rect x="26" y="4.708" fill="none" width="9" height="2"/>
	<path fill="none" d="M35,12.708H19.789c0.676,0,1.355,0.245,2.059,0.518c0.886,0.345,1.75,0.861,2.593,1.301
		c0.033,0.017,0.061-0.818,0.093,0.182H35V12.708z"/>
	<path fill="none" d="M35,16.708h-7.9c0.475,0,0.893,1.109,1.207,1.777c0.033,0.071,0.057-0.777,0.087,0.223H35V16.708z"/>
	<path fill="none" d="M35,14.708H24.533c0.803,0,1.53,0.942,2.171,1.547c0.146,0.138,0.262-0.547,0.396,0.453H35V14.708z"/>
	<path fill="none" d="M107,10.708v-2H90.243c-0.41,0-0.742,1-1.006,2H107z"/>
	<rect x="102" y="4.708" fill="none" width="5" height="2"/>
	<path fill="none" d="M57.707,9.246c0.061-0.188,0.133-0.538,0.198-0.538H40v2h17.314C57.427,9.708,57.558,9.711,57.707,9.246z"/>
	<path fill="none" d="M35,18.708h-6.606c0.25,0,0.414,1,0.479,2H35V18.708z"/>
	<path fill="none" d="M78.225,6.708h6.679c0.359-1,0.745-1.131,1.181-1.626c0.117-0.132,0.248-0.374,0.369-0.374h-9.448
		c0.015,0,0.033,0.036,0.048,0.056C77.498,5.347,77.885,5.708,78.225,6.708z"/>
	<path fill="none" d="M83.211,10.708c0.077-1,0.146-0.582,0.237-0.857c0.129-0.396,0.277-1.143,0.43-1.143H78.99
		c0.194,0,0.365,1,0.497,2H83.211z"/>
	<path fill="none" d="M128,22.708v2h4.569c-0.279-1-0.515-2-0.719-2H128z"/>
	<path fill="none" d="M40,5.708v1h18.769c0.397-1,0.85-2,1.351-2H52v1H40z"/>
	<rect x="112" y="26.708" fill="none" width="10" height="2"/>
	<rect x="102" y="26.708" fill="none" width="5" height="2"/>
	<path fill="none" d="M85.637,26.708h-8.815c-0.11,0-0.212,0.292-0.328,0.424c-0.527,0.603-1.1,0.576-1.717,1.576h13.155
		c-0.768-1-1.466-1.057-2.078-1.73C85.777,26.893,85.711,26.708,85.637,26.708z"/>
	<path fill="none" d="M82.929,20.708h-3.481c-0.126,0-0.27,1.211-0.448,1.766c-0.026,0.082-0.059-0.766-0.086,0.234h4.533
		c-0.023-1-0.052-0.131-0.074-0.201C83.191,21.94,83.051,20.708,82.929,20.708z"/>
	<path fill="none" d="M128,28.708h7.644c-0.657-1-1.25-1.079-1.769-1.763c-0.057-0.075-0.104-0.237-0.16-0.237H128V28.708z"/>
	<path fill="none" d="M128,26.708h5.716c-0.434-1-0.818-2-1.146-2H128V26.708z"/>
	<rect x="112" y="4.708" fill="none" width="10" height="2"/>
	<path fill="none" d="M59.652,26.945c-0.057-0.075-0.104-0.237-0.16-0.237H52v2h9.42C60.764,27.708,60.17,27.629,59.652,26.945z"/>
	<path fill="none" d="M35,24.708h-6.581c-0.109,0-0.235,0.618-0.38,0.908c-0.195,0.39-0.426,0.092-0.674,1.092H35V24.708z"/>
	<path fill="none" d="M27.365,26.708c-0.488,0-1.068,1.275-1.758,1.775c-0.11,0.08-0.232-0.775-0.347,0.225H35v-2H27.365z"/>
	<path fill="none" d="M35,22.708h-6.151c-0.074,0-0.216,1-0.429,2H35V22.708z"/>
	<path fill="none" d="M35,20.708h-6.126c0.023,0,0.036,0.538,0.036,0.821c0,0.407-0.022,0.179-0.061,1.179H35V20.708z"/>
	<rect x="112" y="17.708" fill="none" width="10" height="1"/>
	<path fill="none" d="M89.104,20.708c0.235,0,0.542,1,0.916,2H107v-2H89.104z"/>
	<path fill="none" d="M56.988,12.708H52v2h4.834C56.863,13.708,56.912,12.708,56.988,12.708z"/>
	<path fill="none" d="M78.082,24.708c-0.371,0-0.792,1-1.26,2h8.815c-0.509-1-0.958-2-1.345-2H78.082z"/>
	<path fill="none" d="M128,14.708h3.058c0.029-1,0.078-2,0.154-2H128V14.708z"/>
	<path fill="none" d="M40,24.708v1h12v1h7.492c-0.434-1-0.818-2-1.146-2H40z"/>
	<path fill="none" d="M128,16.708h3.037c-0.005-1-0.018-0.47-0.018-0.716c0-0.443,0.021-1.284,0.039-1.284H128V16.708z"/>
	<path fill="none" d="M128,20.708h3.393c-0.109-1-0.188-2-0.249-2H128V20.708z"/>
	<path fill="none" d="M128,18.708h3.144c-0.057-1-0.092-2-0.106-2H128V18.708z"/>
	<rect x="112" y="24.708" fill="none" width="10" height="2"/>
	<rect x="102" y="24.708" fill="none" width="5" height="2"/>
	<path fill="none" d="M90.27,8.664c-0.01,0.014-0.018-0.956-0.027,0.044H107v-2h-5v0.28c0-0.308-0.629-0.28-1.248-0.28h-8.284
		C91.588,6.708,90.851,7.838,90.27,8.664z"/>
	<path fill="none" d="M83.878,8.708c0.296-1,0.642-2,1.026-2h-6.679c0.296,0,0.547,1,0.765,2H83.878z"/>
	<rect x="112" y="6.708" fill="none" width="10" height="2"/>
	<rect x="112" y="10.708" fill="none" width="10" height="2"/>
	<rect x="112" y="8.708" fill="none" width="10" height="2"/>
	<path fill="none" d="M131.212,12.708c0.083-1,0.186-2,0.326-2H128v2H131.212z"/>
	<rect x="112" y="20.708" fill="none" width="10" height="2"/>
	<path fill="none" d="M56.813,16.708H52v1H40v1h16.92C56.863,17.708,56.828,16.708,56.813,16.708z"/>
	<path fill="none" d="M56.92,18.708H40v2h17.169C57.06,19.708,56.98,18.708,56.92,18.708z"/>
	<path fill="none" d="M131.538,10.708c0.113-1,0.244-0.997,0.393-1.462c0.061-0.188,0.133-0.538,0.198-0.538H128v2H131.538z"/>
	<path fill="none" d="M56.795,15.992c0-0.443,0.021-1.284,0.039-1.284H52v2h4.813C56.809,15.708,56.795,16.238,56.795,15.992z"/>
	<path fill="none" d="M82.787,12.708c0.106-1,0.253-2,0.425-2h-3.724c0.118,0,0.207,1,0.275,2H82.787z"/>
	<path fill="none" d="M57.169,20.708H40v2h17.627C57.446,21.708,57.291,20.708,57.169,20.708z"/>
	<path fill="none" d="M57.905,8.708c0.256-1,0.538-2,0.863-2H40v2H57.905z"/>
	<rect x="112" y="22.708" fill="none" width="10" height="2"/>
	<path fill="none" d="M57.314,10.708H40v2h12.5h4.488C57.071,11.708,57.174,10.708,57.314,10.708z"/>
	<path fill="none" d="M128,20.708v2h3.851c-0.181-1-0.336-2-0.458-2H128z"/>
	<path fill="none" d="M78.913,22.708c-0.242,0-0.521,1-0.831,2h6.211c-0.326-1-0.609-2-0.847-2H78.913z"/>
	<path fill="none" d="M40,22.708v2h18.346c-0.279-1-0.515-2-0.719-2H40z"/>
	<rect x="112" y="18.708" fill="none" width="10" height="2"/>
	<path fill="none" d="M90.021,22.708c0.091,0,0.179,0.291,0.279,0.425c0.474,0.639,1.045,0.575,1.717,1.575h8.982
		c0.024-1-0.203-0.267-0.178-0.276c0.564-0.212,1.179-0.678,1.179-0.898v1.174h5v-2H90.021z"/>
	<path fill="none" d="M25.113,6.118c-0.557-0.146-0.98-0.4-1.573-0.509c-0.594-0.11-1.19-0.257-1.791-0.315
		s-1.172-0.119-1.714-0.119c-0.952,0-1.758,0.062-2.417,0.215c-0.659,0.154-1.201,0.609-1.626,0.88
		c-0.092,0.059-0.158-0.561-0.239,0.439h10.574C26.056,5.708,25.515,6.224,25.113,6.118z"/>
	<path fill="none" d="M92.712,24.827c0.981,0.447,2.137,0.545,3.485,0.545c0.483,0,0.989-0.11,1.553-0.206
		c0.564-0.095,1.1-0.001,1.678-0.154c0.553-0.147,1.037-0.305,1.571-0.305h-8.982C92.237,24.708,92.469,24.717,92.712,24.827z"/>
	<path fill="none" d="M99.083,5.986c-1.128-0.249-2.011-0.499-2.934-0.499c-1.362,0-2.527,0.433-3.494,0.924
		c-0.065,0.033-0.124-0.703-0.187,0.297h8.284C100.191,5.708,99.619,6.104,99.083,5.986z"/>
	<rect x="26" y="2.708" fill="none" width="9" height="2"/>
	<path fill="none" d="M88.906,20.023c0.058,0.237,0.128-0.315,0.199,0.685H107v-2H88.658C88.725,18.708,88.803,19.606,88.906,20.023
		z"/>
	<path fill="none" d="M79.747,18.708c-0.074,0-0.171,1-0.3,2h3.481c-0.124-1-0.217-2-0.282-2H79.747z"/>
	<path fill="none" d="M77.006,4.708h9.448c0.763-1,1.615-2,2.578-2H74.854C75.667,2.708,76.389,3.708,77.006,4.708z"/>
	<path fill="none" d="M60.119,4.708c0.032-1,0.06-0.083,0.093-0.12c0.657-0.752,1.393-1.88,2.189-1.88H52v2H60.119z"/>
	<path fill="none" d="M52,28.708v2h16.052c-2.692-1-4.901-1-6.631-2H52z"/>
	<rect x="112" y="28.708" fill="none" width="10" height="2"/>
	<path fill="none" d="M88.658,18.708H107v-2H88.478C88.504,16.708,88.565,17.708,88.658,18.708z"/>
	<path fill="none" d="M102,28.708v-0.121c-1,0.513-2.117,0.894-3.31,1.143c-1.194,0.249-2.168,0.374-3.458,0.374
		c-2.065,0-3.831-0.054-5.42-0.662c-0.699-0.267-1.278-0.733-1.88-0.733H74.777c-0.626,0-1.299,0.831-2.019,1.126
		c-1.394,0.572-2.882-0.126-4.464,0.874H107v-2H102z"/>
	<path fill="none" d="M12.971,24.929c0.74,0.154,1.476,0.275,2.208,0.363s1.443,0.132,2.131,0.132c1.025,0,1.897-0.088,2.615-0.264
		s1.304-0.167,1.758-0.475c0.102-0.069,0.174,0.023,0.264,0.023H10.099c0.186,0,0.375-0.127,0.587-0.067
		C11.418,24.846,12.231,24.775,12.971,24.929z"/>
	<path fill="none" d="M128,28.708v2h14.275c-2.692-1-4.901-1-6.631-2H128z"/>
	<path fill="none" d="M25.259,28.708c-0.969,0-2.092,1.129-3.375,1.456c-1.379,0.352-2.901-0.456-4.526,0.544H35v-2H25.259z"/>
	<path fill="none" d="M79.881,16.708h2.657c-0.002-1-0.013-0.268-0.013-0.409c0-0.545,0.021-1.591,0.052-1.591h-2.693
		c0.01,0,0.026,0.669,0.026,1.02C79.911,16.066,79.891,15.708,79.881,16.708z"/>
	<path fill="none" d="M82.578,14.708c0.042-1,0.112-2,0.209-2h-3.024c0.063,0,0.102,1,0.123,2H82.578z"/>
	<path fill="none" d="M79.881,16.708c-0.021,0-0.065,1-0.134,2h2.899c-0.06-1-0.099-2-0.108-2H79.881z"/>
	<path fill="none" d="M128,6.708h4.992c0.397-1,0.85-2,1.351-2H128V6.708z"/>
	<path fill="none" d="M88.746,12.708H107v-2H89.236c-0.128,0-0.245,0.727-0.339,1.12C88.83,12.107,88.798,11.708,88.746,12.708z"/>
	<path fill="none" d="M128,8.708h4.129c0.256-1,0.538-2,0.863-2H128V8.708z"/>
	<rect x="102" y="2.708" fill="none" width="5" height="2"/>
	<path fill="none" d="M88.457,15.86c0,0.291,0.01-0.152,0.021,0.848H107v-2H88.517C88.495,14.708,88.457,15.459,88.457,15.86z"/>
	<path fill="none" d="M88.517,14.708H107v-2H88.746C88.634,12.708,88.557,13.708,88.517,14.708z"/>
	<path fill="none" d="M134.343,4.708c0.032-1,0.06-0.083,0.093-0.12c0.657-0.752,1.393-1.88,2.189-1.88H128v2H134.343z"/>
	<rect x="112" y="2.708" fill="none" width="10" height="2"/>
	<path fill="none" d="M74.198,15.992c0-0.443-0.009-1.284-0.024-1.284H62.526c-0.011,0-0.018,0.67-0.018,1.02
		c0,0.337,0.008-0.02,0.017,0.98h11.66C74.19,15.708,74.198,16.237,74.198,15.992z"/>
	<path fill="none" d="M62.964,20.708c0.163,0,0.366,1,0.617,2h9.541c0.264-1,0.475-2,0.638-2H62.964z"/>
	<path fill="none" d="M74.023,12.708H62.67c-0.072,0-0.121,1-0.144,2h11.647C74.147,13.708,74.096,12.708,74.023,12.708z"/>
	<path fill="none" d="M68.353,25.585c1.04,0,1.93-0.091,2.669-0.523c0.235-0.137,0.451-0.354,0.658-0.354h-6.692
		C65.855,24.708,66.973,25.585,68.353,25.585z"/>
	<path fill="none" d="M62.67,12.708h11.354c-0.083-1-0.197-2-0.342-2H63.012c-0.064,0-0.124,0.53-0.174,0.813
		C62.77,11.897,62.717,11.708,62.67,12.708z"/>
	<path fill="none" d="M74.185,16.708h-11.66c0.02,0,0.064,1,0.128,2h11.414C74.13,17.708,74.169,16.708,74.185,16.708z"/>
	<path fill="none" d="M72.835,23.287c0.103-0.182,0.196-0.579,0.287-0.579h-9.541c0.095,0,0.194,0.428,0.301,0.623
		c0.304,0.554,0.677,0.377,1.107,1.377h6.692C72.127,23.708,72.516,23.857,72.835,23.287z"/>
	<path fill="none" d="M74.067,18.708H62.653c0.074,0,0.178,1,0.311,2H73.76c0.037-1,0.077-0.332,0.108-0.509
		C73.952,19.731,74.015,18.708,74.067,18.708z"/>
	<path fill="none" d="M73.682,10.708c-0.182-1-0.416-2-0.693-2h-9.245c-0.299,0-0.546,1-0.731,2H73.682z"/>
	<path fill="none" d="M68.353,5.634c-1.04,0-1.926,0.341-2.659,0.773c-0.089,0.053-0.17-0.699-0.255,0.301h5.893
		C70.527,5.708,69.539,5.634,68.353,5.634z"/>
	<path fill="none" d="M63.882,8.433c-0.049,0.086-0.092-0.725-0.138,0.275h9.245c-0.051-1-0.099-0.219-0.153-0.319
		c-0.391-0.718-0.896-1.681-1.503-1.681h-5.893C64.823,6.708,64.3,7.699,63.882,8.433z"/>
	<path fill="none" d="M137.805,22.708h9.541c0.264-1,0.475-2,0.638-2h-10.795C137.351,20.708,137.554,21.708,137.805,22.708z"/>
	<path fill="none" d="M136.732,15.728c0,0.337,0.008-0.02,0.017,0.98h11.66c0.005-1,0.013-0.471,0.013-0.716
		c0-0.443-0.009-1.284-0.024-1.284H136.75C136.739,14.708,136.732,15.378,136.732,15.728z"/>
	<path fill="none" d="M142.577,5.634c-1.04,0-1.926,0.341-2.659,0.773c-0.089,0.053-0.17-0.699-0.255,0.301h5.893
		C144.751,5.708,143.763,5.634,142.577,5.634z"/>
	<path fill="none" d="M138.105,23.331c0.304,0.554,0.677,0.377,1.107,1.377h6.692c0.446-1,0.835-0.851,1.155-1.421
		c0.103-0.182,0.196-0.579,0.287-0.579h-9.541C137.899,22.708,137.999,23.136,138.105,23.331z"/>
	<path fill="none" d="M137.188,20.708h10.795c0.037-1,0.077-0.332,0.108-0.509c0.084-0.468,0.147-1.491,0.199-1.491h-11.414
		C136.951,18.708,137.055,19.708,137.188,20.708z"/>
	<path fill="none" d="M136.877,18.708h11.414c0.063-1,0.102-2,0.118-2h-11.66C136.769,16.708,136.813,17.708,136.877,18.708z"/>
	<path fill="none" d="M137.236,10.708h10.669c-0.182-1-0.416-2-0.693-2h-9.245C137.668,8.708,137.421,9.708,137.236,10.708z"/>
	<path fill="none" d="M138.105,8.433c-0.049,0.086-0.092-0.725-0.138,0.275h9.245c-0.051-1-0.099-0.219-0.153-0.319
		c-0.391-0.718-0.896-1.681-1.503-1.681h-5.893C139.047,6.708,138.523,7.699,138.105,8.433z"/>
	<path fill="none" d="M137.062,11.521c-0.068,0.377-0.121,0.188-0.168,1.188h11.354c-0.083-1-0.197-2-0.342-2h-10.669
		C137.171,10.708,137.112,11.238,137.062,11.521z"/>
	<path fill="none" d="M136.75,14.708h11.647c-0.027-1-0.078-2-0.15-2h-11.354C136.822,12.708,136.773,13.708,136.75,14.708z"/>
	<path fill="none" d="M142.577,25.585c1.04,0,1.93-0.091,2.669-0.523c0.235-0.137,0.451-0.354,0.658-0.354h-6.692
		C140.079,24.708,141.196,25.585,142.577,25.585z"/>
	<path fill="none" stroke="#000000" stroke-miterlimit="10" d="M17.162,30.213c0.066,0,0.13-0.005,0.196-0.005h-0.378
		C17.041,30.208,17.101,30.213,17.162,30.213z"/>
	<path fill="none" stroke="#000000" stroke-miterlimit="10" d="M8.5,23.731v0.477h1.599C9.644,24.057,9.21,23.898,8.5,23.731z"/>
	<path fill="none" stroke="#000000" stroke-miterlimit="10" d="M26.5,1.407c0-0.117-0.834-0.23-1.397-0.341
		c-0.564-0.109-1.075-0.205-1.682-0.285c-0.608-0.081-1.186-0.146-1.808-0.198c-0.623-0.051-1.201-0.077-1.772-0.077
		c-1.948,0-3.601,0.224-4.978,0.67c-0.865,0.281-1.618,0.629-2.286,1.031H26.5V1.407z"/>
	<path fill="none" stroke="#000000" stroke-miterlimit="10" d="M28.91,21.029c0-0.283-0.013-0.556-0.036-0.821h-6.466
		c0.378,0.468,0.572,1.041,0.572,1.722c0,0.097-0.021,0.185-0.029,0.278h5.898C28.888,21.828,28.91,21.436,28.91,21.029z"/>
	<path fill="none" stroke="#000000" stroke-miterlimit="10" d="M15.069,7.01c0.149-0.31,0.391-0.569,0.684-0.802H9.348
		c-0.207,0.644-0.334,1.311-0.381,2h5.829C14.812,7.774,14.896,7.371,15.069,7.01z"/>
	<path fill="none" stroke="#000000" stroke-miterlimit="10" d="M24.44,14.151c-0.842-0.439-1.707-0.831-2.593-1.176
		c-0.704-0.273-1.383-0.521-2.059-0.768H9.669c0.381,0.76,0.854,1.434,1.439,2h13.424C24.501,14.19,24.473,14.168,24.44,14.151z"/>
	<path fill="none" stroke="#000000" stroke-miterlimit="10" d="M25.259,28.208H8.5v0.863c2,0.41,2.845,0.703,4.251,0.879
		c1.349,0.168,2.782,0.251,4.228,0.258h0.378c1.625-0.014,3.146-0.192,4.526-0.544C23.167,29.337,24.291,28.846,25.259,28.208z"/>
	<path fill="none" stroke="#000000" stroke-miterlimit="10" d="M15.388,9.878c-0.403-0.432-0.604-0.949-0.604-1.549
		c0-0.042,0.011-0.079,0.012-0.121H8.967C8.952,8.415,8.938,8.623,8.938,8.834c0,0.489,0.041,0.941,0.104,1.374h6.723
		C15.638,10.099,15.496,9.994,15.388,9.878z"/>
	<path fill="none" stroke="#000000" stroke-miterlimit="10" d="M26.5,2.208H12.577c-0.395,0.238-0.767,0.49-1.094,0.771
		c-0.44,0.378-0.821,0.788-1.143,1.229H26.5V2.208z"/>
	<path fill="none" stroke="#000000" stroke-miterlimit="10" d="M15.992,6.011c0.425-0.271,0.967-0.483,1.626-0.638
		c0.659-0.153,1.465-0.23,2.417-0.23c0.542,0,1.113,0.029,1.714,0.088s1.197,0.143,1.791,0.253c0.593,0.109,1.017,0.238,1.573,0.384
		c0.402,0.106,0.942,0.219,1.214,0.34H26.5v-2H10.34c-0.321,0.44-0.584,0.913-0.789,1.418C9.474,5.817,9.411,6.013,9.348,6.208
		h6.405C15.834,6.143,15.9,6.07,15.992,6.011z"/>
	<path fill="none" stroke="#000000" stroke-miterlimit="10" d="M26.5,6.351V6.208h-0.173C26.432,6.254,26.5,6.302,26.5,6.351z"/>
	<path fill="none" stroke="#000000" stroke-miterlimit="10" d="M19.255,12.009c-0.842-0.3-1.597-0.622-2.263-0.967
		c-0.488-0.251-0.881-0.535-1.227-0.834H9.042c0.097,0.656,0.257,1.254,0.5,1.779c0.037,0.079,0.088,0.144,0.127,0.221h10.12
		C19.614,12.144,19.429,12.071,19.255,12.009z"/>
	<path fill="none" stroke="#000000" stroke-miterlimit="10" d="M28.039,25.116c0.145-0.29,0.271-0.592,0.38-0.908h-6.473
		c-0.089,0.075-0.162,0.158-0.264,0.227c-0.454,0.308-1.04,0.549-1.758,0.725s-1.589,0.264-2.615,0.264
		c-0.688,0-1.399-0.044-2.131-0.132s-1.469-0.208-2.208-0.363c-0.74-0.153-1.552-0.333-2.285-0.538
		c-0.212-0.06-0.402-0.121-0.587-0.183H8.5v2h18.865C27.613,25.864,27.844,25.505,28.039,25.116z"/>
	<path fill="none" stroke="#000000" stroke-miterlimit="10" d="M25.606,27.983c0.69-0.5,1.27-1.098,1.758-1.775H8.5v2h16.759
		C25.374,28.132,25.496,28.063,25.606,27.983z"/>
	<path fill="none" stroke="#000000" stroke-miterlimit="10" d="M28.849,22.208H22.95c-0.031,0.402-0.112,0.783-0.278,1.128
		c-0.159,0.33-0.417,0.613-0.725,0.872h6.473C28.632,23.591,28.774,22.923,28.849,22.208z"/>
	<path fill="none" stroke="#000000" stroke-miterlimit="10" d="M26.704,15.755c-0.641-0.605-1.368-1.118-2.171-1.547H11.109
		c0.01,0.01,0.017,0.021,0.027,0.031c0.659,0.63,1.41,1.157,2.253,1.582c0.27,0.136,0.543,0.26,0.815,0.387H27.1
		C26.966,16.059,26.851,15.894,26.704,15.755z"/>
	<path fill="none" stroke="#000000" stroke-miterlimit="10" d="M28.394,18.208h-9.098c0.532,0.215,1.039,0.44,1.486,0.689
		c0.659,0.366,1.19,0.788,1.593,1.264c0.013,0.015,0.021,0.032,0.033,0.047h6.466C28.808,19.468,28.644,18.805,28.394,18.208z"/>
	<path fill="none" stroke="#000000" stroke-miterlimit="10" d="M28.307,17.985c-0.314-0.668-0.732-1.247-1.207-1.777H14.204
		c0.579,0.27,1.162,0.527,1.755,0.756c0.872,0.337,1.729,0.652,2.571,0.945c0.27,0.094,0.515,0.198,0.766,0.299h9.098
		C28.363,18.135,28.34,18.056,28.307,17.985z"/>
	<rect x="35.5" y="1.208" fill="none" stroke="#000000" stroke-miterlimit="10" width="17" height="1"/>
	<rect x="35.5" y="14.208" fill="none" stroke="#000000" stroke-miterlimit="10" width="17" height="2"/>
	<rect x="35.5" y="22.208" fill="none" stroke="#000000" stroke-miterlimit="10" width="5" height="2"/>
	<rect x="35.5" y="20.208" fill="none" stroke="#000000" stroke-miterlimit="10" width="5" height="2"/>
	<rect x="35.5" y="18.208" fill="none" stroke="#000000" stroke-miterlimit="10" width="5" height="2"/>
	<polygon fill="none" stroke="#000000" stroke-miterlimit="10" points="40.5,25.208 40.5,24.208 35.5,24.208 35.5,26.208 
		52.5,26.208 52.5,25.208 	"/>
	<rect x="35.5" y="28.208" fill="none" stroke="#000000" stroke-miterlimit="10" width="17" height="2"/>
	<polygon fill="none" stroke="#000000" stroke-miterlimit="10" points="40.5,6.208 40.5,5.208 52.5,5.208 52.5,4.208 35.5,4.208 
		35.5,6.208 	"/>
	<polygon fill="none" stroke="#000000" stroke-miterlimit="10" points="40.5,17.208 52.5,17.208 52.5,16.208 35.5,16.208 
		35.5,18.208 40.5,18.208 	"/>
	<rect x="35.5" y="26.208" fill="none" stroke="#000000" stroke-miterlimit="10" width="17" height="2"/>
	<rect x="35.5" y="2.208" fill="none" stroke="#000000" stroke-miterlimit="10" width="17" height="2"/>
	<rect x="35.5" y="6.208" fill="none" stroke="#000000" stroke-miterlimit="10" width="5" height="2"/>
	<rect x="35.5" y="10.208" fill="none" stroke="#000000" stroke-miterlimit="10" width="5" height="2"/>
	<polygon fill="none" stroke="#000000" stroke-miterlimit="10" points="52.5,12.208 40.5,12.208 35.5,12.208 35.5,14.208 
		52.5,14.208 	"/>
	<rect x="35.5" y="8.208" fill="none" stroke="#000000" stroke-miterlimit="10" width="5" height="2"/>
	<path stroke="#000000" stroke-miterlimit="10" d="M62.838,11.021c0.051-0.282,0.11-0.551,0.174-0.813h-5.698
		c-0.14,0.63-0.243,1.303-0.326,2h5.682C62.717,11.797,62.77,11.397,62.838,11.021z"/>
	<path stroke="#000000" stroke-miterlimit="10" d="M79.762,12.208c-0.068-0.695-0.157-1.365-0.275-2h-5.806
		c0.145,0.607,0.258,1.276,0.342,2H79.762z"/>
	<path stroke="#000000" stroke-miterlimit="10" d="M63.882,22.831c-0.107-0.195-0.206-0.404-0.301-0.623h-5.954
		c0.204,0.71,0.44,1.38,0.719,2h6.643C64.559,23.838,64.186,23.385,63.882,22.831z"/>
	<path stroke="#000000" stroke-miterlimit="10" d="M73.122,22.208c-0.09,0.201-0.184,0.396-0.287,0.579
		c-0.32,0.57-0.708,1.039-1.155,1.421h6.401c0.31-0.618,0.589-1.282,0.831-2H73.122z"/>
	<path stroke="#000000" stroke-miterlimit="10" d="M62.67,12.208h-5.682c-0.076,0.638-0.125,1.307-0.154,2h5.692
		C62.549,13.5,62.598,12.836,62.67,12.208z"/>
	<path stroke="#000000" stroke-miterlimit="10" d="M65.439,6.208c0.085-0.059,0.166-0.123,0.255-0.176
		c0.732-0.432,1.619-0.648,2.659-0.648c1.186,0,2.174,0.281,2.979,0.824h6.893c-0.34-0.708-0.727-1.361-1.171-1.944
		c-0.015-0.02-0.033-0.036-0.048-0.056H60.119c-0.501,0.591-0.954,1.255-1.351,2H65.439z"/>
	<path stroke="#000000" stroke-miterlimit="10" d="M62.653,18.208H56.92c0.061,0.693,0.14,1.365,0.249,2h5.795
		C62.831,19.597,62.728,18.93,62.653,18.208z"/>
	<path stroke="#000000" stroke-miterlimit="10" d="M57.169,20.208c0.122,0.704,0.277,1.367,0.458,2h5.954
		c-0.251-0.581-0.454-1.252-0.617-2H57.169z"/>
	<path stroke="#000000" stroke-miterlimit="10" d="M79.447,20.208H73.76c-0.163,0.744-0.374,1.414-0.638,2h5.791
		c0.027-0.081,0.06-0.152,0.086-0.234C79.177,21.419,79.321,20.824,79.447,20.208z"/>
	<path stroke="#000000" stroke-miterlimit="10" d="M57.314,10.208h5.698c0.186-0.755,0.432-1.417,0.731-2h-5.838
		c-0.065,0.181-0.138,0.351-0.198,0.538C57.558,9.211,57.427,9.699,57.314,10.208z"/>
	<path stroke="#000000" stroke-miterlimit="10" d="M62.525,16.208h-5.712c0.015,0.691,0.05,1.358,0.106,2h5.733
		C62.589,17.582,62.545,16.917,62.525,16.208z"/>
	<path stroke="#000000" stroke-miterlimit="10" d="M62.508,15.228c0-0.35,0.007-0.688,0.018-1.02h-5.692
		c-0.018,0.422-0.039,0.841-0.039,1.284c0,0.246,0.013,0.476,0.018,0.716h5.712C62.516,15.888,62.508,15.565,62.508,15.228z"/>
	<path stroke="#000000" stroke-miterlimit="10" d="M79.911,15.228c0-0.351-0.016-0.682-0.026-1.02h-5.711
		c0.015,0.414,0.024,0.84,0.024,1.284c0,0.246-0.007,0.479-0.013,0.716h5.696C79.891,15.882,79.911,15.566,79.911,15.228z"/>
	<path stroke="#000000" stroke-miterlimit="10" d="M74.185,16.208c-0.016,0.705-0.055,1.372-0.118,2h5.68
		c0.068-0.639,0.112-1.306,0.134-2H74.185z"/>
	<path stroke="#000000" stroke-miterlimit="10" d="M74.777,28.208H61.42c1.73,1.311,3.939,1.979,6.631,2h0.243
		c1.582-0.014,3.07-0.302,4.464-0.874C73.478,29.039,74.151,28.663,74.777,28.208z"/>
	<path stroke="#000000" stroke-miterlimit="10" d="M74.067,18.208c-0.052,0.521-0.115,1.023-0.199,1.491
		c-0.032,0.177-0.072,0.34-0.108,0.509h5.688c0.129-0.632,0.226-1.303,0.3-2H74.067z"/>
	<path stroke="#000000" stroke-miterlimit="10" d="M71.681,24.208c-0.208,0.178-0.423,0.342-0.658,0.479
		c-0.74,0.432-1.629,0.648-2.669,0.648c-1.38,0-2.498-0.382-3.364-1.127h-6.643c0.329,0.731,0.713,1.395,1.146,2h17.33
		c0.468-0.596,0.889-1.261,1.26-2H71.681z"/>
	<path stroke="#000000" stroke-miterlimit="10" d="M79.885,14.208c-0.021-0.691-0.06-1.36-0.123-2h-5.739
		c0.072,0.625,0.124,1.289,0.15,2H79.885z"/>
	<path stroke="#000000" stroke-miterlimit="10" d="M68.177,30.213c0.04,0,0.078-0.005,0.118-0.005h-0.243
		C68.095,30.208,68.134,30.213,68.177,30.213z"/>
	<path stroke="#000000" stroke-miterlimit="10" d="M63.744,8.208c0.046-0.091,0.089-0.188,0.138-0.275
		c0.418-0.734,0.941-1.302,1.558-1.725h-6.671c-0.326,0.611-0.607,1.286-0.863,2H63.744z"/>
	<path stroke="#000000" stroke-miterlimit="10" d="M79.487,10.208c-0.132-0.708-0.303-1.367-0.497-2h-6.002
		c0.278,0.577,0.512,1.239,0.693,2H79.487z"/>
	<path stroke="#000000" stroke-miterlimit="10" d="M60.212,4.088c-0.033,0.038-0.061,0.082-0.093,0.12h16.887
		c-0.618-0.8-1.34-1.459-2.152-2H62.401C61.604,2.719,60.869,3.336,60.212,4.088z"/>
	<path stroke="#000000" stroke-miterlimit="10" d="M68.529,0.506c-1.626,0-3.153,0.293-4.582,0.879
		c-0.544,0.224-1.054,0.507-1.546,0.823h12.453C73.164,1.083,71.062,0.506,68.529,0.506z"/>
	<path stroke="#000000" stroke-miterlimit="10" d="M72.835,7.889c0.054,0.1,0.102,0.213,0.153,0.319h6.002
		c-0.218-0.711-0.469-1.383-0.765-2h-6.893C71.939,6.617,72.445,7.171,72.835,7.889z"/>
	<path stroke="#000000" stroke-miterlimit="10" d="M76.494,26.632c0.115-0.132,0.218-0.284,0.328-0.424h-17.33
		c0.055,0.077,0.103,0.163,0.16,0.237c0.518,0.684,1.112,1.265,1.769,1.763h13.357C75.395,27.76,75.967,27.235,76.494,26.632z"/>
	<path fill="none" stroke="#000000" stroke-miterlimit="10" d="M82.929,20.208c0.123,0.625,0.263,1.232,0.442,1.799
		c0.022,0.07,0.051,0.132,0.074,0.201h6.575c-0.374-0.589-0.681-1.254-0.916-2H82.929z"/>
	<path fill="none" stroke="#000000" stroke-miterlimit="10" d="M89.875,29.191c1.589,0.608,3.417,0.912,5.482,0.912
		c1.289,0,2.388-0.125,3.583-0.374c1.193-0.249,2.56-0.63,3.56-1.143v-0.379H87.932C88.535,28.59,89.176,28.924,89.875,29.191z"/>
	<path fill="none" stroke="#000000" stroke-miterlimit="10" d="M85.637,26.208c0.074,0.088,0.14,0.185,0.217,0.27
		c0.611,0.673,1.31,1.243,2.078,1.73H102.5v-2H85.637z"/>
	<path fill="none" stroke="#000000" stroke-miterlimit="10" d="M82.525,15.799c0,0.141,0.011,0.27,0.013,0.409h5.94
		c-0.011-0.279-0.021-0.558-0.021-0.848c0-0.4,0.038-0.77,0.06-1.152h-5.939C82.546,14.727,82.525,15.254,82.525,15.799z"/>
	<path fill="none" stroke="#000000" stroke-miterlimit="10" d="M88.517,14.208c0.04-0.697,0.117-1.363,0.229-2h-5.959
		c-0.097,0.643-0.167,1.309-0.209,2H88.517z"/>
	<path fill="none" stroke="#000000" stroke-miterlimit="10" d="M82.646,18.208h6.012c-0.093-0.63-0.154-1.296-0.18-2h-5.94
		C82.548,16.901,82.586,17.566,82.646,18.208z"/>
	<path fill="none" stroke="#000000" stroke-miterlimit="10" d="M86.454,4.208H102.5v-2H89.032
		C88.069,2.745,87.217,3.42,86.454,4.208z"/>
	<path fill="none" stroke="#000000" stroke-miterlimit="10" d="M88.746,12.208c0.052-0.292,0.084-0.601,0.151-0.88
		c0.094-0.393,0.211-0.762,0.339-1.12h-6.025c-0.171,0.641-0.319,1.302-0.425,2H88.746z"/>
	<path fill="none" stroke="#000000" stroke-miterlimit="10" d="M88.658,18.208h-6.012c0.065,0.696,0.158,1.364,0.282,2h6.176
		c-0.071-0.223-0.141-0.447-0.199-0.685C88.803,19.106,88.725,18.663,88.658,18.208z"/>
	<path fill="none" stroke="#000000" stroke-miterlimit="10" d="M100.999,24.208c-0.534,0.201-1.018,0.376-1.571,0.523
		c-0.578,0.153-1.114,0.278-1.678,0.373c-0.564,0.096-1.069,0.143-1.553,0.143c-1.348,0-2.503-0.223-3.485-0.67
		c-0.243-0.11-0.475-0.234-0.696-0.369h-7.724c0.386,0.735,0.835,1.4,1.345,2H102.5v-2H100.999z"/>
	<path fill="none" stroke="#000000" stroke-miterlimit="10" d="M84.904,6.208h7.563c0.063-0.035,0.122-0.076,0.187-0.109
		c0.967-0.491,2.131-0.736,3.494-0.736c0.923,0,1.806,0.125,2.934,0.374c0.536,0.119,1.108,0.278,1.669,0.472h1.748v-2H86.454
		c-0.122,0.126-0.252,0.242-0.369,0.374C85.649,5.077,85.264,5.628,84.904,6.208z"/>
	<path fill="none" stroke="#000000" stroke-miterlimit="10" d="M83.211,10.208h6.025c0.265-0.739,0.597-1.409,1.006-2h-6.364
		c-0.153,0.37-0.301,0.746-0.43,1.143C83.358,9.626,83.289,9.92,83.211,10.208z"/>
	<path fill="none" stroke="#000000" stroke-miterlimit="10" d="M101.071,24.182c-0.025,0.009-0.048,0.017-0.072,0.026h1.501v-0.674
		C102.5,23.753,101.635,23.97,101.071,24.182z"/>
	<path fill="none" stroke="#000000" stroke-miterlimit="10" d="M90.299,22.633c-0.1-0.134-0.188-0.281-0.279-0.425h-6.575
		c0.238,0.715,0.521,1.38,0.847,2h7.724C91.344,23.797,90.773,23.272,90.299,22.633z"/>
	<path fill="none" stroke="#000000" stroke-miterlimit="10" d="M102.5,1.627c0-0.205-1.066-0.374-1.638-0.505
		s-0.993-0.238-1.55-0.319c-0.557-0.08-1.125-0.135-1.703-0.165s-1.197-0.044-1.856-0.044c-2.036,0-3.871,0.34-5.504,1.022
		c-0.422,0.176-0.827,0.375-1.217,0.592H102.5V1.627z"/>
	<path fill="none" stroke="#000000" stroke-miterlimit="10" d="M90.243,8.208c0.01-0.014,0.018-0.03,0.027-0.044
		c0.581-0.826,1.318-1.474,2.198-1.956h-7.563c-0.384,0.62-0.729,1.282-1.026,2H90.243z"/>
	<path fill="none" stroke="#000000" stroke-miterlimit="10" d="M102.5,6.208h-1.748c0.619,0.215,1.224,0.473,1.748,0.78V6.208z"/>
	<path stroke="#000000" stroke-miterlimit="10" d="M147.905,10.208h5.806c-0.132-0.708-0.303-1.367-0.497-2h-6.002
		C147.49,8.785,147.724,9.447,147.905,10.208z"/>
	<path stroke="#000000" stroke-miterlimit="10" d="M148.421,15.492c0,0.246-0.007,0.479-0.013,0.716h5.696
		c0.01-0.326,0.03-0.642,0.03-0.98c0-0.351-0.016-0.682-0.026-1.02h-5.711C148.413,14.622,148.421,15.048,148.421,15.492z"/>
	<path stroke="#000000" stroke-miterlimit="10" d="M131.851,22.208h5.954c-0.251-0.581-0.454-1.252-0.617-2h-5.795
		C131.514,20.912,131.669,21.575,131.851,22.208z"/>
	<path stroke="#000000" stroke-miterlimit="10" d="M131.393,20.208h5.795c-0.133-0.611-0.237-1.278-0.311-2h-5.733
		C131.204,18.901,131.283,19.573,131.393,20.208z"/>
	<path stroke="#000000" stroke-miterlimit="10" d="M133.875,26.445c0.518,0.684,1.112,1.265,1.769,1.763h13.357
		c0.617-0.448,1.189-0.973,1.717-1.576c0.115-0.132,0.218-0.284,0.328-0.424h-17.33C133.771,26.285,133.819,26.371,133.875,26.445z"
		/>
	<path stroke="#000000" stroke-miterlimit="10" d="M137.967,8.208c0.046-0.091,0.089-0.188,0.138-0.275
		c0.418-0.734,0.941-1.302,1.558-1.725h-6.671c-0.326,0.611-0.607,1.286-0.863,2H137.967z"/>
	<path stroke="#000000" stroke-miterlimit="10" d="M142.401,30.213c0.04,0,0.078-0.005,0.118-0.005h-0.243
		C142.318,30.208,142.358,30.213,142.401,30.213z"/>
	<path stroke="#000000" stroke-miterlimit="10" d="M149.078,2.208h-12.453c-0.797,0.511-1.533,1.128-2.189,1.88
		c-0.033,0.038-0.061,0.082-0.093,0.12h16.887C150.612,3.408,149.89,2.749,149.078,2.208z"/>
	<path stroke="#000000" stroke-miterlimit="10" d="M147.059,7.889c0.054,0.1,0.102,0.213,0.153,0.319h6.002
		c-0.218-0.711-0.469-1.383-0.765-2h-6.893C146.163,6.617,146.668,7.171,147.059,7.889z"/>
	<path stroke="#000000" stroke-miterlimit="10" d="M131.144,18.208h5.733c-0.064-0.626-0.108-1.291-0.128-2h-5.712
		C131.052,16.899,131.087,17.566,131.144,18.208z"/>
	<path stroke="#000000" stroke-miterlimit="10" d="M132.992,6.208h6.671c0.085-0.059,0.166-0.123,0.255-0.176
		c0.732-0.432,1.619-0.648,2.659-0.648c1.186,0,2.174,0.281,2.979,0.824h6.893c-0.34-0.708-0.727-1.361-1.171-1.944
		c-0.015-0.02-0.033-0.036-0.048-0.056h-16.887C133.842,4.799,133.389,5.463,132.992,6.208z"/>
	<path stroke="#000000" stroke-miterlimit="10" d="M142.275,30.208h0.243c1.582-0.014,3.07-0.302,4.464-0.874
		c0.719-0.295,1.392-0.671,2.019-1.126h-13.357C137.374,29.519,139.583,30.188,142.275,30.208z"/>
	<path stroke="#000000" stroke-miterlimit="10" d="M147.346,22.208h5.791c0.027-0.081,0.06-0.152,0.086-0.234
		c0.178-0.555,0.322-1.149,0.448-1.766h-5.688C147.82,20.952,147.61,21.622,147.346,22.208z"/>
	<path stroke="#000000" stroke-miterlimit="10" d="M148.247,12.208h5.739c-0.068-0.695-0.157-1.365-0.275-2h-5.806
		C148.05,10.815,148.164,11.484,148.247,12.208z"/>
	<path stroke="#000000" stroke-miterlimit="10" d="M142.752,0.506c-1.626,0-3.153,0.293-4.582,0.879
		c-0.544,0.224-1.054,0.507-1.546,0.823h12.453C147.388,1.083,145.286,0.506,142.752,0.506z"/>
	<path stroke="#000000" stroke-miterlimit="10" d="M148.291,18.208h5.68c0.068-0.639,0.112-1.306,0.134-2h-5.696
		C148.393,16.913,148.354,17.58,148.291,18.208z"/>
	<path stroke="#000000" stroke-miterlimit="10" d="M148.092,19.699c-0.032,0.177-0.072,0.34-0.108,0.509h5.688
		c0.129-0.632,0.226-1.303,0.3-2h-5.68C148.239,18.729,148.176,19.231,148.092,19.699z"/>
	<path stroke="#000000" stroke-miterlimit="10" d="M147.059,22.787c-0.32,0.57-0.708,1.039-1.155,1.421h6.401
		c0.31-0.618,0.589-1.282,0.831-2h-5.791C147.255,22.409,147.162,22.604,147.059,22.787z"/>
	<path stroke="#000000" stroke-miterlimit="10" d="M148.397,14.208h5.711c-0.021-0.691-0.06-1.36-0.123-2h-5.739
		C148.319,12.833,148.371,13.497,148.397,14.208z"/>
	<path stroke="#000000" stroke-miterlimit="10" d="M131.538,10.208h5.698c0.186-0.755,0.432-1.417,0.731-2h-5.838
		c-0.065,0.181-0.138,0.351-0.198,0.538C131.781,9.211,131.65,9.699,131.538,10.208z"/>
	<path stroke="#000000" stroke-miterlimit="10" d="M131.058,14.208h5.692c0.023-0.708,0.072-1.372,0.144-2h-5.682
		C131.136,12.846,131.086,13.515,131.058,14.208z"/>
	<path stroke="#000000" stroke-miterlimit="10" d="M131.212,12.208h5.682c0.047-0.411,0.1-0.811,0.168-1.188
		c0.051-0.282,0.11-0.551,0.174-0.813h-5.698C131.398,10.838,131.295,11.511,131.212,12.208z"/>
	<path stroke="#000000" stroke-miterlimit="10" d="M138.105,22.831c-0.107-0.195-0.206-0.404-0.301-0.623h-5.954
		c0.204,0.71,0.44,1.38,0.719,2h6.643C138.782,23.838,138.409,23.385,138.105,22.831z"/>
	<path stroke="#000000" stroke-miterlimit="10" d="M131.019,15.492c0,0.246,0.013,0.476,0.018,0.716h5.712
		c-0.009-0.32-0.017-0.643-0.017-0.98c0-0.35,0.007-0.688,0.018-1.02h-5.692C131.04,14.63,131.019,15.049,131.019,15.492z"/>
	<path stroke="#000000" stroke-miterlimit="10" d="M145.246,24.688c-0.74,0.432-1.629,0.648-2.669,0.648
		c-1.38,0-2.498-0.382-3.364-1.127h-6.643c0.329,0.731,0.713,1.395,1.146,2h17.33c0.468-0.596,0.889-1.261,1.26-2h-6.401
		C145.697,24.386,145.481,24.55,145.246,24.688z"/>
	<rect x="107.5" y="1.208" fill="none" stroke="#000000" stroke-miterlimit="10" width="5" height="1"/>
	<rect x="122.5" y="1.208" fill="none" stroke="#000000" stroke-miterlimit="10" width="6" height="1"/>
	<rect x="107.5" y="22.208" fill="none" stroke="#000000" stroke-miterlimit="10" width="5" height="2"/>
	<rect x="122.5" y="6.208" fill="none" stroke="#000000" stroke-miterlimit="10" width="6" height="2"/>
	<rect x="122.5" y="8.208" fill="none" stroke="#000000" stroke-miterlimit="10" width="6" height="2"/>
	<rect x="122.5" y="22.208" fill="none" stroke="#000000" stroke-miterlimit="10" width="6" height="2"/>
	<rect x="122.5" y="20.208" fill="none" stroke="#000000" stroke-miterlimit="10" width="6" height="2"/>
	<rect x="122.5" y="4.208" fill="none" stroke="#000000" stroke-miterlimit="10" width="6" height="2"/>
	<rect x="107.5" y="4.208" fill="none" stroke="#000000" stroke-miterlimit="10" width="5" height="2"/>
	<rect x="122.5" y="24.208" fill="none" stroke="#000000" stroke-miterlimit="10" width="6" height="2"/>
	<rect x="107.5" y="6.208" fill="none" stroke="#000000" stroke-miterlimit="10" width="5" height="2"/>
	<rect x="122.5" y="10.208" fill="none" stroke="#000000" stroke-miterlimit="10" width="6" height="2"/>
	<rect x="107.5" y="8.208" fill="none" stroke="#000000" stroke-miterlimit="10" width="5" height="2"/>
	<rect x="107.5" y="24.208" fill="none" stroke="#000000" stroke-miterlimit="10" width="5" height="2"/>
	<rect x="122.5" y="18.208" fill="none" stroke="#000000" stroke-miterlimit="10" width="6" height="2"/>
	<polygon fill="none" stroke="#000000" stroke-miterlimit="10" points="107.5,18.208 112.5,18.208 112.5,17.208 122.5,17.208 
		122.5,18.208 128.5,18.208 128.5,16.208 107.5,16.208 	"/>
	<rect x="122.5" y="26.208" fill="none" stroke="#000000" stroke-miterlimit="10" width="6" height="2"/>
	<rect x="122.5" y="2.208" fill="none" stroke="#000000" stroke-miterlimit="10" width="6" height="2"/>
	<rect x="107.5" y="26.208" fill="none" stroke="#000000" stroke-miterlimit="10" width="5" height="2"/>
	<rect x="107.5" y="28.208" fill="none" stroke="#000000" stroke-miterlimit="10" width="5" height="2"/>
	<rect x="107.5" y="10.208" fill="none" stroke="#000000" stroke-miterlimit="10" width="5" height="2"/>
	<rect x="107.5" y="2.208" fill="none" stroke="#000000" stroke-miterlimit="10" width="5" height="2"/>
	<polygon fill="none" stroke="#000000" stroke-miterlimit="10" points="107.5,14.208 128.5,14.208 128.5,12.208 122.5,12.208 
		112.5,12.208 107.5,12.208 	"/>
	<rect x="107.5" y="20.208" fill="none" stroke="#000000" stroke-miterlimit="10" width="5" height="2"/>
	<rect x="107.5" y="14.208" fill="none" stroke="#000000" stroke-miterlimit="10" width="21" height="2"/>
	<rect x="107.5" y="18.208" fill="none" stroke="#000000" stroke-miterlimit="10" width="5" height="2"/>
	<rect x="122.5" y="28.208" fill="none" stroke="#000000" stroke-miterlimit="10" width="6" height="2"/>
</g>
</svg>
